<svg width="16" height="16" viewBox="0 0 16 16" fill="none" xmlns="http://www.w3.org/2000/svg">
<path d="M9.8618 10.9025C8.95989 10.9025 8.04863 10.5452 7.36003 9.84073C7.0692 9.55293 7.0692 9.07671 7.36003 8.78906C7.64129 8.50126 8.09697 8.50126 8.38778 8.78906C8.79515 9.20591 9.31867 9.41412 9.86168 9.41412C10.3951 9.41412 10.9186 9.20577 11.3356 8.78906L13.9344 6.12978C14.3417 5.70317 14.5452 5.16734 14.5452 4.62159C14.5452 4.06594 14.3416 3.53012 13.9344 3.1134C13.527 2.69655 12.9938 2.48834 12.4605 2.48834C11.927 2.48834 11.3938 2.69669 10.9866 3.1134L9.68714 4.44309C9.39631 4.7309 8.94049 4.7309 8.65938 4.44309C8.36856 4.1455 8.36856 3.67907 8.65938 3.39142L9.95883 2.06173C10.6473 1.3473 11.5588 1 12.4606 1C13.3623 1 14.2738 1.3473 14.9624 2.06173C15.6509 2.76623 16 3.68903 16 4.62172C16 5.54462 15.6509 6.47708 14.9624 7.18171L12.3636 9.8406C11.675 10.5452 10.7635 10.9025 9.8618 10.9025Z" fill="black"/>
<path d="M8.63995 6.15926C8.92121 6.44707 8.92121 6.92328 8.63995 7.21093C8.35868 7.50853 7.8933 7.50853 7.61219 7.21093C7.20482 6.79409 6.67164 6.58587 6.1383 6.58587C5.60486 6.58587 5.07165 6.79423 4.6644 7.21093L2.06559 9.87022C1.65823 10.2968 1.45475 10.8327 1.45475 11.3784C1.45475 11.9341 1.65836 12.4699 2.06559 12.8866C2.47296 13.3034 2.99648 13.5117 3.53949 13.5117C4.07292 13.5117 4.59644 13.3033 5.01338 12.8866L6.31283 11.5569C6.5941 11.2691 7.04978 11.2691 7.34059 11.5569C7.62185 11.8545 7.62185 12.3209 7.34059 12.6086L6.04114 13.9383C5.35266 14.6527 4.44114 15 3.53936 15C2.62788 15 1.72619 14.6527 1.03758 13.9383C0.349105 13.2338 0 12.311 0 11.3783C0 10.4554 0.339405 9.52291 1.03758 8.81828L3.63639 6.15926C4.32487 5.45476 5.23639 5.09753 6.13817 5.09753C7.03986 5.09741 7.9516 5.45463 8.63995 6.15926Z" fill="black"/>
</svg>
